<svg xmlns="http://www.w3.org/2000/svg" viewBox="0 0 997.06 273.76"><defs><style>.cls-1,.cls-2,.cls-3{fill:#00a99d;}.cls-2,.cls-3{stroke:#000;stroke-miterlimit:10;}.cls-2{stroke-width:8px;}.cls-3{stroke-width:7px;}</style></defs><title>logo2</title><g id="Layer_2" data-name="Layer 2"><g id="Layer_1-2" data-name="Layer 1"><path class="cls-1" d="M0,89.84H18.35V216.6H79.09V232H0Z"/><path class="cls-1" d="M119.59,101.23c.22,6.33-4.43,11.39-11.81,11.39A11,11,0,0,1,96.6,101.23a11.31,11.31,0,0,1,11.6-11.6C115.16,89.63,119.59,94.69,119.59,101.23ZM98.92,232V129.92h18.56V232Z"/><path class="cls-1" d="M217.88,216.18h-.42c-5.48,10.13-16.87,18.14-33.32,18.14-23.84,0-43.24-20.67-43.24-51.67,0-38.18,24.68-55.05,46.19-55.05,15.82,0,26.37,7.8,31.43,17.71h.42l.63-15.39h17.51c-.42,8.64-.63,17.5-.63,28.05V273.76H217.88Zm0-44.92a31.81,31.81,0,0,0-.84-7.81,27.12,27.12,0,0,0-26.57-21.09c-19.2,0-30.8,16.24-30.8,39.23,0,20.25,9.7,38,30.16,38,12,0,22.36-7.39,26.58-20.25a31.31,31.31,0,0,0,1.47-8.86Z"/><path class="cls-1" d="M352.46,204.16c0,10.55.21,19.83.84,27.84H336.85l-1.06-16.66h-.42a38.42,38.42,0,0,1-33.74,19c-16,0-35.23-8.86-35.23-44.71V129.92H285v56.52c0,19.41,5.91,32.48,22.78,32.48,12.45,0,21.09-8.64,24.47-16.87a27.25,27.25,0,0,0,1.69-9.49V129.92h18.56Z"/><path class="cls-1" d="M403.93,101.23c.21,6.33-4.43,11.39-11.81,11.39a11,11,0,0,1-11.18-11.39,11.31,11.31,0,0,1,11.6-11.6C399.5,89.63,403.93,94.69,403.93,101.23ZM383.26,232V129.92h18.56V232Z"/><path class="cls-1" d="M520.78,82.25V205.64c0,9.07.21,19.4.84,26.36H505l-.85-17.72h-.42c-5.69,11.39-18.14,20-34.8,20-24.68,0-43.66-20.88-43.66-51.88-.21-34,20.88-54.84,45.77-54.84,15.61,0,26.16,7.38,30.79,15.6h.43V82.25Zm-18.56,89.22a33,33,0,0,0-.85-7.81c-2.74-11.81-12.86-21.51-26.78-21.51-19.2,0-30.59,16.87-30.59,39.44,0,20.67,10.13,37.75,30.16,37.75,12.45,0,23.84-8.22,27.21-22.14a32.36,32.36,0,0,0,.85-8Z"/><path class="cls-1" d="M742.26,91.74c9.28-1.9,22.57-2.95,35.22-2.95,19.62,0,32.27,3.58,41.13,11.6,7.17,6.33,11.18,16,11.18,27,0,18.78-11.81,31.22-26.79,36.28v.64c11,3.79,17.51,13.92,20.88,28.68,4.65,19.83,8,33.54,11,39h-19c-2.32-4-5.48-16.24-9.49-34-4.22-19.61-11.81-27-28.48-27.63H760.61V232H742.26Zm18.35,64.75h18.77c19.62,0,32.06-10.76,32.06-27,0-18.35-13.29-26.36-32.69-26.57-8.86,0-15.19.84-18.14,1.69Z"/><path class="cls-1" d="M975.54,169.57c-1-19.83-2.32-43.66-2.1-61.38h-.64c-4.85,16.66-10.76,34.38-17.93,54l-25.1,69H915.85l-23-67.71c-6.75-20-12.44-38.39-16.45-55.26H876c-.42,17.72-1.48,41.55-2.74,62.85l-3.8,61H852l9.91-142.16h23.41l24.26,68.76c5.9,17.51,10.75,33.11,14.34,47.88h.63c3.59-14.34,8.65-29.95,15-47.88l25.31-68.76H988.2L997.06,232H979.13Z"/><path class="cls-2" d="M700.47,181.85a46.76,46.76,0,1,1-93.51,0C607,156,653.72,91.9,653.72,91.9S700.47,156,700.47,181.85Z"/><path class="cls-3" d="M146.47,76.84a36.85,36.85,0,0,1-73.7,0c0-20.35,36.85-70.9,36.85-70.9S146.47,56.49,146.47,76.84Z"/></g></g></svg>