<svg xmlns="http://www.w3.org/2000/svg" viewBox="0 0 862.77 669.72"><defs><style>.cls-1{fill:red;}.cls-2{fill:#858585;}</style></defs><title>s2_eventos_logo</title><g id="Layer_1" data-name="Layer 1"><path class="cls-1" d="M480.08,252.63q9.56,0,32.42,18.75v10.74h-5.28v2.93q-21.68-13.67-35.15-13.67H458.4q-55.08,30.86,38.86,268L500,552.63q0,53.91-61.92,89.45l-19.33,5.27q-40.25-11.52-40.24-40.82,3.12-13.08,7.82-13.08H392q8.79,34.75,18.75,34.76,62.11,0,70.51-75.58V539.35Q364.84,271.77,461.13,255Z" transform="translate(-79.92 -252.63)"/><path class="cls-1" d="M586.89,290.13q21.5,6.84,21.49,62.5Q594.9,494.62,576,571q28.51-3.33,59.18-37.7h2.93l8,8q0,32.43-72.85,56.84l-21.68-5.67v-2.34q54.11-261.53,29.69-267.58-15.63,0-18.75,75.59l-8,5.66q-7.23,0-16.4-16.41,8-41.59,22.36-69T586.89,290.13Z" transform="translate(-79.92 -252.63)"/></g><g id="Layer_2" data-name="Layer 2"><path class="cls-2" d="M98.92,738.63l8.66,4.29,27.8-1.26q45,2.94,45,26,0,27-76.93,69.4-4.47,7.54-4.48,26.17v33.19l2.32,8.58a21.6,21.6,0,0,1-10.81,13.09l-6.33-4.29H81.93l6.65-123V771.92q0-6.49-8.66-11.62,6.35-7.54,6.34-15.92Zm2.32,33.29v52h6.34q51.12-27.65,57.77-52,0-21.67-32.29-21.67Q101.24,750.25,101.24,771.92Z" transform="translate(-79.92 -252.63)"/><path class="cls-2" d="M187.89,744.38h6.33l6.33,4.3v1.57l-4.17,11.51v10.16l4.17,72.44,2.17,4.29h4.17q14.21-36.23,42.79-36.22,20.54,0,23.63,79.67L277.48,908l-6.33,7.33q-11.13,0-13-14.66v-10q0-65.11-17.14-65.11-26.26,6.79-32,69.4,1.39,20.42,4.48,20.42-4.49,6.38-8.5,7h-6.64q-10.5-4.08-10.5-11.52l4.17-7.11q-9-149.19-17.15-149.18Q178.47,748,187.89,744.38Z" transform="translate(-79.92 -252.63)"/><path class="cls-2" d="M343,803.85q19.94,0,27.81,38.73l-2.16,1.78v8.58q-5.42,66.69-34.14,66.69l-2.32,1.25H330q-32-4.92-32-55.06Q298,803.84,343,803.85ZM311,858.7q4.78,50.56,19,50.56h2.16q18.08,0,23.48-52V836.82q0-19.47-19-21.46Q311,820.49,311,858.7Z" transform="translate(-79.92 -252.63)"/><path class="cls-2" d="M408.14,744.17l4.79-.2.92,10.36v1.46q0,33.19,6.34,33.19L441,784.27c1.44,2,2.83,4.12,4.17,6.28-2.57,1.54-3.14,2.51-1.7,2.93l-25.64,8.59,4.48,75.26v5.76q-.62,21.25-4.48,34.13l-10-.42-.62-22.51V842.58q0-37.47-6.33-37.48l-19.62,1-6.95-1.89.62-3.45,3.7-.63h4.17q20.24-2,20.24-9.63l-4.48-43.34,2.32-1.25Z" transform="translate(-79.92 -252.63)"/><path class="cls-2" d="M501.12,803.85q19.92,0,27.8,38.73l-2.16,1.78v8.58q-5.41,66.69-34.14,66.69l-2.32,1.25h-2.16q-32-4.92-32-55.06Q456.16,803.84,501.12,803.85Zm-32,54.85q4.78,50.56,19,50.56h2.16q18.07,0,23.48-52V836.82q0-19.47-19-21.46Q469.15,820.49,469.14,858.7Z" transform="translate(-79.92 -252.63)"/><path class="cls-2" d="M557.79,743.55l10.66,4.5-2.16,12.87,8.5,72.24h2.31q18.54-17.38,31.82-17.38h6.65q25.63,14.87,25.64,30.67-14.52,48.06-51.13,72.24l-2.63,1.36q-8.49-1.37-8.49-7.12h-4.17q-15.76,0-17-4.5v-1.26l4-11.62q0-98.82-14.52-144.67Q547.29,747,557.79,743.55Zm23.64,163.62,2,1.26q19.92-8,36.3-44.6l4.48-11.51q0-24.92-19.62-24.92Q584.37,827.4,581.43,907.17Z" transform="translate(-79.92 -252.63)"/><path class="cls-2" d="M703.6,803.85q19.93,0,27.81,38.73l-2.17,1.78v8.58q-5.4,66.69-34.13,66.69l-2.32,1.25h-2.16q-32-4.92-32-55.06Q658.65,803.84,703.6,803.85Zm-32,54.85q4.79,50.56,19,50.56h2.16q18.08,0,23.48-52V836.82q0-19.47-19-21.46Q671.62,820.49,671.63,858.7Z" transform="translate(-79.92 -252.63)"/><path class="cls-2" d="M795,803.85q19.92,0,27.8,38.73l-2.16,1.78v8.58q-5.41,66.69-34.14,66.69l-2.32,1.25h-2.16q-32-4.92-32-55.06Q750.08,803.84,795,803.85Zm-32,54.85q4.79,50.56,19,50.56h2.16q18.07,0,23.48-52V836.82q0-19.47-19-21.46Q763.07,820.49,763.06,858.7Z" transform="translate(-79.92 -252.63)"/><path class="cls-2" d="M846.62,760.92q9.42,2.63,10.81,5.76L853,782.59l4.48,60.72h1.85q15.13-7.74,38.62-39l2.16-1.57h4.17l8.5,5.87v2.93q-49.12,44.6-49.12,50.67v1.46q0,17.6,63.95,46.27h2.16l13-2.93v5.76q-4,5.13-13,7.33-19.15-2.84-66.11-34.76l-2.16,1.47v8.58q.91,10.78,6.33,14.55-4.17,8.6-8.5,8.59h-4.17l-10.66-7,2.17-10.36V889.58q0-24.5-4.48-24.49l2.31-5.76-6.33-89.82H835.8Q835.8,766.9,846.62,760.92Z" transform="translate(-79.92 -252.63)"/></g></svg>