<svg xmlns="http://www.w3.org/2000/svg" viewBox="0 0 702.72 287.9"><defs><style>.cls-1{fill:red;}</style></defs><title>Asset 1</title><g id="Layer_2" data-name="Layer 2"><g id="Layer_1-2" data-name="Layer 1"><path class="cls-1" d="M368.8,29.68c-.73.95-1.6,1.27-2,1-.05,0-.3-.21-.29-.84a49.94,49.94,0,0,0-1.34-12.34q-1.07-5.91-4.85-8.75a11.38,11.38,0,0,0-9.22-1.87,20.76,20.76,0,0,0-13.6,8.74q-5.17,7.23-3.81,14.82a15.88,15.88,0,0,0,3,7.06q2.31,3,9.26,7.85,12.67,8.65,17.12,14a24.16,24.16,0,0,1,5.46,11.06,29.39,29.39,0,0,1-2.21,17q-3.72,8.67-12.74,15.48a46.63,46.63,0,0,1-20.08,8.79q-10.89,1.95-19.38-2.39t-9.63-10.62a8.31,8.31,0,0,1,1-5.95,6,6,0,0,1,4.08-3,5.42,5.42,0,0,1,4.67,1.3c.86.69,1.91,2.41,3.14,5.14a21.33,21.33,0,0,0,4.34,7,13.19,13.19,0,0,0,5.56,3,15.64,15.64,0,0,0,7.06.28,28.19,28.19,0,0,0,17.84-10.84q6.88-8.88,5.27-17.86a19.23,19.23,0,0,0-2.13-5.92,27.93,27.93,0,0,0-5-6.19A104,104,0,0,0,340.13,58a88.61,88.61,0,0,1-9.79-7.36,27.46,27.46,0,0,1-4.77-6.31,22.25,22.25,0,0,1-2.4-6.74,25.69,25.69,0,0,1,2.16-14.88A35.63,35.63,0,0,1,329,16.09a39,39,0,0,1,6.43-6.84c3.43-2.91,6.87-5.84,12.33-7.57,3.07-1,9.38-3.07,15.9-.3a17.72,17.72,0,0,1,5.1,3.3,17.92,17.92,0,0,1,4,7C375.47,20.72,369.63,28.61,368.8,29.68Z"/><path class="cls-1" d="M372.8,29.68q-3.23,2.59-4,2c-.32-.25-.32-.91,0-2a35.91,35.91,0,0,1,4-9c2.62-4.18,6.58-8.57,10.21-10.58a50.62,50.62,0,0,1,7.42-3.84h0a28.81,28.81,0,0,1,9.24-1.48q11.08,0,17.67,7a23.26,23.26,0,0,1,6.6,16.43A31.8,31.8,0,0,1,421.56,40a46.82,46.82,0,0,1-7.82,12.48q-3.53,4.3-19.34,17.84-21.27,18.47-29.89,29.82c3.23.2,7.8.43,13.29.52.56,0,6.36.11,10,0a96,96,0,0,0,24-4c-.18.63-.43,1.59-.68,2.76-1.2,5.71-.48,6.89-1.32,8.24-1.71,2.76-7.1,1.44-18,1a92.82,92.82,0,0,0-13,0c-5.07.32-12.55.72-22,1a4.63,4.63,0,0,1-4-1,4.48,4.48,0,0,1-1-5,33,33,0,0,1,3-9c3.6-7.08,8.61-10.31,18-17,13.09-9.31,19.7-14.09,24.15-19.22a61,61,0,0,0,9.58-16.11,29,29,0,0,0,2.29-10.91q0-7.92-4.31-12.68A13.82,13.82,0,0,0,393.87,14c-4.52,0-7.86,2.17-10.33,3.8A33.45,33.45,0,0,0,372.8,29.68Z"/><path d="M42.08,169.76l1.05-4A149.42,149.42,0,0,0,65,162.28q-2.16,6.16-4.69,16.13l-6.64,24.75,8.09.44A26.34,26.34,0,0,0,74,200.79q6.65-3.07,11.87-10.82a29.19,29.19,0,0,0,5.23-16.7q0-8.88-6.37-14.06T65.25,154A62.83,62.83,0,0,0,36,161.45q-14.31,7.43-22.09,19T6.15,203.25a21.41,21.41,0,0,0,2,9.62,23.81,23.81,0,0,0,7.2,8q4.3,3.17,4.31,6.15a4.27,4.27,0,0,1-1.41,3.25,4.75,4.75,0,0,1-3.36,1.32q-5.2,0-10.06-7.12T0,206.5q0-20,15.3-36.39,20-21.63,53.79-21.63,12.84,0,21.06,3.34t12.3,9.14a21.37,21.37,0,0,1,4.09,12.57q0,8.63-5.73,16.93T83.9,203.86A59.09,59.09,0,0,1,59.07,209q-2.12,0-6.57-.26l-7.07,27.35q-1.76,6.94-4,13.7a50.92,50.92,0,0,0,11.93,1.67A43.71,43.71,0,0,0,67.19,249l-1,4.92a46.05,46.05,0,0,1-11.6,1.85,130.82,130.82,0,0,1-13.34-1,95.27,95.27,0,0,0-11.42-.88,79,79,0,0,0-17.47,2l1-4.66q9.13-1.49,12.47-4.3,4.76-4,7.73-15.91l13.26-52.66a26.11,26.11,0,0,0,.88-5.19,3.39,3.39,0,0,0-1.14-2.5,3.81,3.81,0,0,0-2.73-1.1A12.2,12.2,0,0,0,42.08,169.76Z"/><path d="M170,235.25l2.29,3.25a77.84,77.84,0,0,1-16.62,14.24q-5.81,3.6-9.58,3.6a6,6,0,0,1-5-2.46q-1.89-2.46-1.89-7.65A53.58,53.58,0,0,1,140.69,236q1.45-6.72,8.22-28.87,3-10.91,3-12.75c0-1.88-1-2.81-3-2.81q-3.69,0-9.25,3.68a55.31,55.31,0,0,0-13.76,13q-3.78,5.06-6.08,15l-6.94,30.7H99.77q4.23-15.36,6.51-25.11l12.92-56.38q3.51-15.62,9.27-24a42.28,42.28,0,0,1,15-13.46,38.13,38.13,0,0,1,18.32-5,8.91,8.91,0,0,1,6,1.87,5.93,5.93,0,0,1,2.2,4.72,5.43,5.43,0,0,1-2.16,4.24A8.74,8.74,0,0,1,162,142.5a41.18,41.18,0,0,1-5.46-.46,84.61,84.61,0,0,0-10.47-1.12,8,8,0,0,0-6.6,3.27q-2.55,3.27-5.28,15.37L124.38,203a112.84,112.84,0,0,1,22.8-18.52Q154.4,180,158.79,180a7.11,7.11,0,0,1,5.37,2,7.81,7.81,0,0,1,1.94,5.63,26,26,0,0,1-.71,6q-1.14,5.19-5.38,18.81-5.73,18.81-6.74,23.38a38.06,38.06,0,0,0-1,8.18,3.68,3.68,0,0,0,.49,2.11,1.63,1.63,0,0,0,1.45.7q2.1,0,7.91-5Q165.36,239,170,235.25Z"/><path d="M222.23,180a17.91,17.91,0,0,1,14.33,6.86q5.7,6.85,5.71,19.07,0,19.53-13.71,35t-29,15.51q-9.41,0-15.17-6.15t-5.75-16.79a59.79,59.79,0,0,1,10.54-34.11Q202.45,180,222.23,180Zm-7.48,6.6q-7.47,0-14.46,10.68t-7,29.49q0,11.43,4.3,18a9.68,9.68,0,0,0,8.44,4.83q7.38,0,13.45-9.14,7.74-11.87,7.74-29.45,0-13.18-3.56-18.81T214.75,186.55Z"/><path d="M275.23,166.41l14-5.35-6.31,24.61h18.2l-1.41,6.24H281.46l-7.67,29.46q-3.66,13.26-3.65,18.45a4.79,4.79,0,0,0,1,3.42,3.62,3.62,0,0,0,2.77,1.06c1.81,0,4.6-1.08,8.35-3.25a109.6,109.6,0,0,0,14.06-9.76l3.34,4q-19.25,14.5-25.75,17.76t-10.47,3.25a6.23,6.23,0,0,1-5.14-2.37q-1.89-2.37-1.89-7.74,0-6.33,3.34-19.34l8.95-35H254.47l1.58-6.24h14.26Z"/><path d="M351.8,180a17.91,17.91,0,0,1,14.33,6.86q5.72,6.85,5.71,19.07,0,19.53-13.71,35t-29,15.51q-9.4,0-15.16-6.15t-5.76-16.79a59.8,59.8,0,0,1,10.55-34.11Q332,180,351.8,180Zm-7.47,6.6q-7.47,0-14.46,10.68t-7,29.49q0,11.43,4.31,18a9.67,9.67,0,0,0,8.44,4.83q7.38,0,13.45-9.14,7.73-11.87,7.73-29.45,0-13.18-3.56-18.81T344.33,186.55Z"/><path d="M406.92,195.34a53.15,53.15,0,0,1,14-11.48q6.9-3.65,12.17-3.64a11.71,11.71,0,0,1,9.85,4.92q3.69,4.92,3.69,14.85a63.44,63.44,0,0,1-6.77,28.22q-6.76,13.8-16.74,21t-19.47,7.21q-8.1,0-12.93-4.75a16.47,16.47,0,0,1-4.83-12.3q0-6.07,2.37-16.88L398.65,176q3.78-17.06,9.5-26a42.75,42.75,0,0,1,15-14.24q9.31-5.33,17.67-5.32,5,0,7.34,1.72a5.44,5.44,0,0,1,2.33,4.61,5.53,5.53,0,0,1-2.11,4.4,9.11,9.11,0,0,1-6,1.75,65.32,65.32,0,0,1-10-1.31,30,30,0,0,0-5.63-.62q-4.39,0-7.12,4.75-2,3.69-5.54,18.72ZM424.24,190q-4.32,0-10.25,5.19t-11.2,18.33a68.88,68.88,0,0,0-5.28,25.8,11.12,11.12,0,0,0,3,8,9.46,9.46,0,0,0,7.08,3.21q9.76,0,17.41-15.42a68.69,68.69,0,0,0,7.64-30.73q0-6.95-2.9-11.34A6.35,6.35,0,0,0,424.24,190Z"/><path d="M499.4,180a17.89,17.89,0,0,1,14.32,6.86q5.71,6.85,5.72,19.07,0,19.53-13.72,35t-29,15.51q-9.42,0-15.17-6.15t-5.76-16.79a59.8,59.8,0,0,1,10.55-34.11Q479.62,180,499.4,180Zm-7.48,6.6q-7.47,0-14.46,10.68t-7,29.49q0,11.43,4.31,18a9.67,9.67,0,0,0,8.44,4.83q7.38,0,13.45-9.14,7.74-11.87,7.74-29.45,0-13.18-3.56-18.81T491.92,186.55Z"/><path d="M571.39,180a17.91,17.91,0,0,1,14.33,6.86q5.71,6.85,5.71,19.07,0,19.53-13.71,35t-29,15.51q-9.4,0-15.16-6.15t-5.76-16.79a59.72,59.72,0,0,1,10.55-34.11Q551.62,180,571.39,180Zm-7.47,6.6q-7.47,0-14.46,10.68t-7,29.49q0,11.43,4.31,18a9.67,9.67,0,0,0,8.44,4.83q7.38,0,13.45-9.14,7.73-11.87,7.73-29.45,0-13.18-3.56-18.81T563.92,186.55Z"/><path d="M613.41,253.88h-13.1L611.83,206q8.34-35.64,10.94-43.91A51.94,51.94,0,0,1,629,148.42a41.48,41.48,0,0,1,9.15-9.6A42.74,42.74,0,0,1,650,132.35a34.58,34.58,0,0,1,11.21-2.24q4.57,0,6.81,1.76a5.61,5.61,0,0,1,2.25,4.66,5.42,5.42,0,0,1-2,4.22,7.46,7.46,0,0,1-5.09,1.75,77,77,0,0,1-11.68-1.31,21.87,21.87,0,0,0-4.48-.53,8.08,8.08,0,0,0-5.13,1.94q-2.42,1.93-4.31,6.92t-5.31,20.68l-6.32,28a69.88,69.88,0,0,1,17.51-14.76,26.78,26.78,0,0,1,13.11-3.87,9.74,9.74,0,0,1,7.44,3.3,11.77,11.77,0,0,1,3,8.3q0,9.42-9.76,16.79t-29.8,7.92a42,42,0,0,1,10.82,6.55,44.56,44.56,0,0,1,8,9.86q3.91,6.3,10.07,21.08,7.29,17.61,13.54,23.42t13.53,5.81a12.49,12.49,0,0,0,7.12-1.89q2.82-1.89,2.82-3.83a9.53,9.53,0,0,0-.88-3.34,10.2,10.2,0,0,1-1-3.87,5,5,0,0,1,1.58-3.6,5.09,5.09,0,0,1,3.69-1.58,5.45,5.45,0,0,1,4.22,2,7.54,7.54,0,0,1,1.76,5.23q0,6.33-5.8,11.25T681.8,287.9a31.07,31.07,0,0,1-17.14-4.84q-7.56-4.85-14.15-15.49-3.78-6.17-13.19-28.07a95.69,95.69,0,0,0-7.9-15.58,38.87,38.87,0,0,0-7.46-8Zm9.38-41.67q11.82.09,19.12-2.28t10.41-6.33a13.68,13.68,0,0,0,3.11-8.62,7.77,7.77,0,0,0-1.8-5.36,5.64,5.64,0,0,0-4.34-2Q641,187.6,624,206Z"/></g></g></svg>