<svg xmlns="http://www.w3.org/2000/svg" viewBox="0 0 676.19 222.42"><defs><style>.cls-1,.cls-2{fill:none;}.cls-1,.cls-2,.cls-3{stroke:#4d4d4d;stroke-miterlimit:10;}.cls-1{stroke-width:6px;}.cls-2{stroke-width:7px;}.cls-3{fill:#4d4d4d;stroke-width:4px;}.cls-4{fill:#1b1464;}.cls-5{fill:red;}</style></defs><title>Asset 2</title><g id="Layer_2" data-name="Layer 2"><g id="Layer_1-2" data-name="Layer 1"><ellipse class="cls-1" cx="229.91" cy="135.15" rx="153.25" ry="52.07" transform="translate(-23.93 53.38) rotate(-12.59)"/><ellipse class="cls-2" cx="269.14" cy="111.21" rx="271.39" ry="92.21" transform="translate(-17.77 61.35) rotate(-12.59)"/><circle class="cls-3" cx="529.86" cy="78.21" r="16.5"/><circle class="cls-3" cx="285.86" cy="78.21" r="16.5"/><path class="cls-4" d="M59.41,152.25a44,44,0,0,0,22.29,6.29c12.71,0,20.14-6.71,20.14-16.43,0-9-5.14-14.15-18.14-19.15C68,117.39,58.26,109.25,58.26,95.67c0-15,12.43-26.14,31.15-26.14,9.86,0,17,2.28,21.29,4.71l-3.43,10.15A38.25,38.25,0,0,0,89,79.81c-13.14,0-18.14,7.86-18.14,14.43,0,9,5.86,13.44,19.14,18.58,16.29,6.29,24.58,14.14,24.58,28.29,0,14.86-11,27.72-33.72,27.72-9.29,0-19.43-2.72-24.58-6.14Z"/><path class="cls-4" d="M169.85,167.4l-1-8.72h-.43A25.77,25.77,0,0,1,147.27,169c-14,0-21.14-9.86-21.14-19.86,0-16.72,14.86-25.86,41.58-25.72V122c0-5.71-1.57-16-15.72-16a34.45,34.45,0,0,0-18,5.14l-2.86-8.28c5.71-3.72,14-6.15,22.72-6.15,21.14,0,26.29,14.43,26.29,28.29v25.87a97,97,0,0,0,1.14,16.57ZM168,132.11c-13.71-.29-29.29,2.14-29.29,15.57,0,8.15,5.43,12,11.86,12a17.21,17.21,0,0,0,16.72-11.57,13,13,0,0,0,.71-4Z"/><path class="cls-4" d="M260,98.25c-.28,5-.57,10.57-.57,19V157.4c0,15.86-3.14,25.57-9.86,31.58-6.71,6.28-16.43,8.28-25.14,8.28-8.29,0-17.43-2-23-5.71l3.15-9.58a39,39,0,0,0,20.29,5.43c12.86,0,22.29-6.71,22.29-24.14v-7.72h-.29c-3.86,6.43-11.29,11.57-22,11.57-17.15,0-29.44-14.57-29.44-33.72,0-23.43,15.29-36.72,31.15-36.72,12,0,18.58,6.29,21.58,12h.28L249,98.25Z"/><path class="cls-5" d="M293.43,78.81c.15,4.29-3,7.72-8,7.72a7.48,7.48,0,0,1-7.57-7.72A7.66,7.66,0,0,1,285.72,71C290.43,71,293.43,74.38,293.43,78.81Z"/><rect class="cls-4" x="279.43" y="98.25" width="12.57" height="69.16"/><path class="cls-4" d="M328,78.38V98.25h18v9.57H328v37.29c0,8.57,2.43,13.43,9.43,13.43a27.88,27.88,0,0,0,7.29-.86l.57,9.43a30.58,30.58,0,0,1-11.15,1.72c-5.85,0-10.57-1.86-13.57-5.29-3.57-3.71-4.86-9.86-4.86-18V107.82H305V98.25h10.71V81.67Z"/><path class="cls-4" d="M375.3,78.38V98.25h18v9.57h-18v37.29c0,8.57,2.43,13.43,9.43,13.43a27.88,27.88,0,0,0,7.29-.86l.57,9.43a30.58,30.58,0,0,1-11.15,1.72c-5.85,0-10.57-1.86-13.57-5.29-3.57-3.71-4.86-9.86-4.86-18V107.82H352.3V98.25H363V81.67Z"/><path class="cls-4" d="M445.74,167.4l-1-8.72h-.43A25.77,25.77,0,0,1,423.16,169c-14,0-21.14-9.86-21.14-19.86,0-16.72,14.86-25.86,41.58-25.72V122c0-5.71-1.58-16-15.72-16a34.51,34.51,0,0,0-18,5.14L407,102.82c5.71-3.72,14-6.15,22.72-6.15C450.88,96.67,456,111.1,456,125v25.87a97,97,0,0,0,1.14,16.57Zm-1.86-35.29c-13.72-.29-29.29,2.14-29.29,15.57,0,8.15,5.43,12,11.86,12a17.21,17.21,0,0,0,16.72-11.57,13,13,0,0,0,.71-4Z"/><path class="cls-4" d="M476.31,119.82c0-8.14-.14-15.15-.57-21.57h11l.43,13.57h.57c3.15-9.29,10.72-15.15,19.15-15.15a13.8,13.8,0,0,1,3.57.43V109a19.24,19.24,0,0,0-4.29-.43c-8.86,0-15.14,6.72-16.86,16.15a35.93,35.93,0,0,0-.57,5.86V167.4H476.31Z"/><path class="cls-5" d="M537.6,78.81c.15,4.29-3,7.72-8,7.72A7.48,7.48,0,0,1,522,78.81,7.66,7.66,0,0,1,529.89,71C534.6,71,537.6,74.38,537.6,78.81Z"/><rect class="cls-4" x="523.6" y="98.25" width="12.57" height="69.16"/><path class="cls-4" d="M614.9,148.54c0,7.14.15,13.43.57,18.86H604.33l-.72-11.29h-.28A26,26,0,0,1,580.47,169c-10.86,0-23.86-6-23.86-30.29V98.25h12.57v38.29c0,13.14,4,22,15.43,22,8.43,0,14.29-5.86,16.58-11.43a18.49,18.49,0,0,0,1.14-6.43V98.25H614.9Z"/><path class="cls-4" d="M634,154.54a33,33,0,0,0,16.58,5c9.14,0,13.43-4.57,13.43-10.29,0-6-3.57-9.28-12.86-12.71-12.43-4.43-18.29-11.29-18.29-19.58,0-11.14,9-20.29,23.86-20.29a34.51,34.51,0,0,1,17,4.29l-3.15,9.14a26.92,26.92,0,0,0-14.14-4c-7.43,0-11.58,4.29-11.58,9.43,0,5.72,4.15,8.29,13.15,11.72,12,4.57,18.14,10.57,18.14,20.86,0,12.15-9.43,20.72-25.86,20.72-7.57,0-14.57-1.86-19.43-4.72Z"/><circle class="cls-5" cx="225.36" cy="131.71" r="21"/></g></g></svg>