<svg xmlns="http://www.w3.org/2000/svg" viewBox="0 0 466.12 346">
    <defs>
        <style>.cls-1{fill:#0071e3;} .cls-2{fill:#FFFFFF;}</style>
    </defs>
    <title>Asset 2</title>
    <g id="Layer_2" data-name="Layer 2">
        <g id="Layer_1-2" data-name="Layer 1">
            <path
                class="cls-2"
                d="M64.72,288.84a95,95,0,0,1-34.87-24.25Q15.4,248.69,7.71,226.07T0,175.21v-.16q0-37.31,13.46-64.16t38.2-41.36Q76.4,55,110,55q27.74,0,48.66,9.82a90.62,90.62,0,0,1,51.75,65.29l.65,2.75H168.7l-.65-1.78q-6.65-18.81-21.49-29.36T110.14,91.19q-21.09,0-36.17,9.89t-23.2,28.63q-8.12,18.73-8.11,45v.16q0,20.12,4.71,36.09a77,77,0,0,0,13.7,27.09,60.53,60.53,0,0,0,21.66,17A66.51,66.51,0,0,0,111.28,261q17.67,0,31.22-6.81a52,52,0,0,0,21.25-19.14q7.71-12.33,8-28.71l.17-3.57H113.87V170.18h98.95v25.31q0,23.69-6.89,42.5a85.13,85.13,0,0,1-52.23,52.23q-18.9,7-42.91,7Q85.16,297.2,64.72,288.84Z" />
            <path class="cls-1"
                d="M271.8,59.07h37.64L446.34,256l-39.58-32.76h17.69V59.07H466V293.14H428.66L291.59,95.73l39.58,32.6H313.33V293.14H271.8Z" />
            <rect class="cls-1" x="272.12" width="194" height="31" />
            <rect class="cls-2"
                x="0.12" y="315" width="213" height="31" />
        </g>
    </g>
</svg>